<svg width="15" height="12" viewBox="0 0 15 12" fill="none" xmlns="http://www.w3.org/2000/svg">
<path d="M2.52043 10.5802C3.22174 10.2792 3.8339 9.82177 4.3569 9.20783C4.87991 8.5939 5.19491 7.96792 5.30189 7.32991C5.36132 6.99285 5.39104 6.70394 5.39104 6.46318C5.39104 6.1863 5.36132 5.95758 5.30189 5.77701C4.74322 6.36687 4.03597 6.6618 3.18014 6.6618C2.32431 6.6618 1.62894 6.40901 1.09405 5.90341C0.559153 5.39782 0.291705 4.69962 0.291705 3.80881C0.291706 2.96615 0.576983 2.27999 1.14754 1.75032C1.7062 1.22065 2.4194 0.955812 3.28712 0.955812C4.47577 0.955812 5.34349 1.38918 5.89027 2.25591C6.13989 2.62909 6.33602 3.08653 6.47865 3.62824C6.62129 4.18198 6.69261 4.74777 6.69261 5.32559C6.69261 6.58958 6.37168 7.74522 5.7298 8.79252C5.08793 9.83983 4.13106 10.6584 2.8592 11.2483L2.52043 10.5802ZM10.0446 10.5802C10.7459 10.2792 11.3581 9.82177 11.8811 9.20783C12.4041 8.5939 12.7191 7.96792 12.8261 7.32991C12.8855 6.99285 12.9152 6.70394 12.9152 6.46318C12.9152 6.1863 12.8855 5.95758 12.8261 5.77701C12.2674 6.36687 11.5602 6.6618 10.7043 6.6618C9.84849 6.6618 9.15313 6.40901 8.61823 5.90341C8.08334 5.39782 7.81589 4.69962 7.81589 3.80881C7.81589 2.96615 8.10117 2.27999 8.67172 1.75032C9.23039 1.22065 9.94358 0.955812 10.8113 0.955812C12 0.955812 12.8677 1.38918 13.4145 2.25591C13.6641 2.62909 13.8602 3.08653 14.0028 3.62824C14.1455 4.18198 14.2168 4.74777 14.2168 5.32559C14.2168 6.58958 13.8959 7.74522 13.254 8.79252C12.6121 9.83983 11.6552 10.6584 10.3834 11.2483L10.0446 10.5802Z" fill="#292E36"/>
</svg>
