<svg width="167" height="92" viewBox="0 0 167 92" fill="none" xmlns="http://www.w3.org/2000/svg">
<path d="M47.75 44.3C48.15 44.2333 48.45 44.3667 48.65 44.7C48.8833 45 48.9333 45.3333 48.8 45.7C48.7 46.0333 48.45 46.2333 48.05 46.3C47.0167 46.4333 45.8667 46.6167 44.6 46.85C42.8667 52.7833 40.15 58.25 36.45 63.25C32.75 68.25 28.2833 72.4167 23.05 75.75C21.9833 76.45 21.1333 76.9833 20.5 77.35C19.8667 77.75 18.9 78.3 17.6 79C16.3333 79.7333 15.2 80.2833 14.2 80.65C13.2 81.0167 12.1 81.3667 10.9 81.7C9.73333 82.0667 8.61667 82.2167 7.55 82.15C6.48333 82.1167 5.51667 81.8833 4.65 81.45C3.35 80.8167 2.46667 79.9333 2 78.8C1.53333 77.7 1.46667 76.5167 1.8 75.25C2.1 73.9833 2.53333 72.7833 3.1 71.65C3.63333 70.5167 4.28333 69.4667 5.05 68.5C9.61667 62.5333 15.2 57.55 21.8 53.55C28.4 49.5167 35.4667 46.7167 43 45.15C43.7667 42.2833 44.3 39.4167 44.6 36.55C44.9 33.65 44.9167 30.7 44.65 27.7C44.4167 24.7 43.8833 21.8833 43.05 19.25C42.2167 16.6167 40.95 14.15 39.25 11.85C37.5833 9.55 35.5667 7.65 33.2 6.15C31.4 5.01666 29.45 4.16666 27.35 3.6C25.2833 3 23.2 2.7 21.1 2.7C19.0333 2.7 16.9667 3.06666 14.9 3.8C12.8667 4.5 11.0333 5.53333 9.4 6.9C6.2 9.6 4.1 13.0167 3.1 17.15C2.1 21.2833 2.41667 25.25 4.05 29.05C4.21667 29.45 4.18333 29.8 3.95 30.1C3.71667 30.3667 3.41667 30.5 3.05 30.5C2.68333 30.4667 2.41667 30.2667 2.25 29.9C1.21667 27.5333 0.65 25.1 0.55 22.6C0.45 20.1 0.75 17.7667 1.45 15.6C2.15 13.4 3.21667 11.3333 4.65 9.4C6.08333 7.43333 7.73333 5.78333 9.6 4.45C11.5 3.11666 13.65 2.11667 16.05 1.45C18.45 0.749999 20.9167 0.516665 23.45 0.749997C26.6833 1.05 29.6167 1.9 32.25 3.3C34.9167 4.7 37.1333 6.46667 38.9 8.6C40.6667 10.7 42.15 13.1167 43.35 15.85C44.5833 18.5833 45.45 21.4167 45.95 24.35C46.4833 27.25 46.7333 30.2167 46.7 33.25C46.6333 37.05 46.1333 40.8667 45.2 44.7C46.2 44.5333 47.05 44.4 47.75 44.3ZM39.85 53.9C40.8167 51.9 41.6667 49.7167 42.4 47.35C35.0667 48.9833 28.1833 51.7833 21.75 55.75C15.35 59.6833 10.1667 64.5333 6.2 70.3C4.5 72.7 3.65 74.5167 3.65 75.75C3.65 76.65 3.8 77.4 4.1 78C4.4 78.6333 4.75 79.0833 5.15 79.35C5.55 79.65 6.06667 79.8333 6.7 79.9C7.36667 79.9667 7.96667 79.9667 8.5 79.9C9.03333 79.8333 9.68333 79.6833 10.45 79.45C11.2167 79.25 11.7833 79.0667 12.15 78.9C12.5167 78.7667 13 78.5833 13.6 78.35C13.7 78.3167 13.7833 78.2833 13.85 78.25C17.55 76.75 21.0333 74.8333 24.3 72.5C31.1333 67.5333 36.3167 61.3333 39.85 53.9ZM54.734 46C56.3007 46.4 57.4007 47.3667 58.034 48.9C58.6673 50.4 58.7007 51.9167 58.134 53.45C57.634 54.9167 56.884 56.2667 55.884 57.5C54.884 58.7333 53.7507 59.3833 52.484 59.45C51.184 59.5167 50.234 59.0667 49.634 58.1C49.0673 57.1333 48.9007 56.0167 49.134 54.75C49.6007 52.15 50.9507 49.55 53.184 46.95C53.2507 46.8833 53.334 46.8167 53.434 46.75C53.6673 46.1167 54.1007 45.8667 54.734 46ZM51.434 57.15C52.0673 57.7167 53.0173 57.3333 54.284 56C55.7507 54.4667 56.534 52.8667 56.634 51.2C56.734 49.7667 56.1173 48.75 54.784 48.15C54.5173 48.45 54.234 48.8167 53.934 49.25C53.634 49.65 53.284 50.15 52.884 50.75C52.484 51.35 52.134 51.95 51.834 52.55C51.534 53.15 51.284 53.75 51.084 54.35C50.884 54.9167 50.8007 55.45 50.834 55.95C50.9007 56.45 51.1007 56.85 51.434 57.15ZM75.1203 46.55C75.4536 46.3167 75.8036 46.2833 76.1703 46.45C76.537 46.6167 76.737 46.8667 76.7703 47.2C76.837 47.5333 76.7203 47.8333 76.4203 48.1C73.987 49.8 71.7703 51.45 69.7703 53.05C70.6703 53.6167 71.4036 54.1833 71.9703 54.75C72.5703 55.2833 73.087 55.9 73.5203 56.6C73.987 57.3 74.1536 58.0667 74.0203 58.9C73.887 59.7333 73.4703 60.5667 72.7703 61.4C72.0703 62.2333 71.1536 63 70.0203 63.7C68.887 64.4333 67.687 64.9833 66.4203 65.35C65.187 65.75 64.0036 65.7333 62.8703 65.3C61.737 64.8667 60.9203 63.9833 60.4203 62.65C59.6536 60.55 60.7703 58.1333 63.7703 55.4C64.5036 54.7667 65.337 54.05 66.2703 53.25C66.2036 53.2167 65.7703 52.9833 64.9703 52.55C64.1703 52.1167 63.637 51.8167 63.3703 51.65C63.1036 51.4833 62.6703 51.2 62.0703 50.8C61.5036 50.4 61.0536 50.0167 60.7203 49.65C60.387 49.2833 60.087 48.8833 59.8203 48.45C58.787 46.65 59.3536 44.6333 61.5203 42.4C63.387 40.4667 65.537 39.2167 67.9703 38.65C70.637 38.0167 72.3203 38.6 73.0203 40.4C73.1203 40.7 73.2036 41.0333 73.2703 41.4C73.3036 41.8 73.1703 42.1167 72.8703 42.35C72.5703 42.55 72.237 42.6 71.8703 42.5C71.5036 42.3667 71.3036 42.1 71.2703 41.7C71.0036 39.8667 69.3203 39.8833 66.2203 41.75C64.8536 42.55 63.8203 43.3 63.1203 44C62.5203 44.6 62.087 45.1167 61.8203 45.55C61.587 45.9833 61.5203 46.4667 61.6203 47C61.7536 47.5 62.1203 48.0333 62.7203 48.6C63.0203 48.8667 63.3703 49.15 63.7703 49.45C64.1703 49.7167 64.5036 49.9333 64.7703 50.1C65.0703 50.2667 65.487 50.5167 66.0203 50.85C66.587 51.15 66.9536 51.35 67.1203 51.45C67.2203 51.4833 67.3536 51.5667 67.5203 51.7C67.7203 51.8 67.8703 51.8667 67.9703 51.9C70.1703 50.1333 72.5536 48.35 75.1203 46.55ZM70.6203 60.7C71.0536 60.2333 71.3703 59.7833 71.5703 59.35C71.7703 58.9167 71.837 58.5167 71.7703 58.15C71.7036 57.75 71.5703 57.3833 71.3703 57.05C71.2036 56.7167 70.9203 56.3833 70.5203 56.05C70.1536 55.7167 69.787 55.4333 69.4203 55.2C69.0536 54.9333 68.6203 54.65 68.1203 54.35C67.2203 55.1167 66.3703 55.8333 65.5703 56.5C65.437 56.6333 65.2036 56.8333 64.8703 57.1C64.5703 57.3667 64.3203 57.5833 64.1203 57.75C63.9203 57.9167 63.7036 58.15 63.4703 58.45C63.2703 58.7167 63.1036 58.9833 62.9703 59.25C62.237 60.8833 62.3036 62.05 63.1703 62.75C64.0703 63.45 65.2703 63.6 66.7703 63.2C68.0036 62.9 69.287 62.0667 70.6203 60.7ZM95.0605 46.3C95.3605 46 95.6772 45.9333 96.0105 46.1C96.3439 46.2333 96.5439 46.4833 96.6105 46.85C96.7105 47.1833 96.6272 47.5167 96.3605 47.85C89.4939 54.8833 83.5605 57.8 78.5605 56.6C76.7939 56.2 75.4605 55.4333 74.5605 54.3C73.6605 53.1333 73.3105 51.85 73.5105 50.45C73.6772 49.0167 74.3272 47.65 75.4605 46.35C76.3605 45.3833 77.5272 44.6 78.9605 44C81.0939 43.1333 82.1439 43.6667 82.1105 45.6C82.1105 45.6333 82.1105 45.6667 82.1105 45.7C82.0772 47 81.2939 48.2333 79.7605 49.4C78.2272 50.5667 76.8439 50.95 75.6105 50.55C75.4772 52.05 76.1105 53.1667 77.5105 53.9C78.9105 54.6333 80.4439 54.85 82.1105 54.55C84.4772 54.1167 86.6772 53.2 88.7105 51.8C90.7772 50.3667 92.8939 48.5333 95.0605 46.3ZM79.2105 46C78.7439 46.0333 78.2272 46.3167 77.6605 46.85C77.1272 47.3833 76.6605 47.9667 76.2605 48.6C76.9605 48.9333 77.8105 48.5333 78.8105 47.4C79.4772 46.6333 79.6605 46.1667 79.3605 46C79.3272 46 79.2772 46 79.2105 46ZM106.221 48.7C106.621 48.6333 106.921 48.75 107.121 49.05C107.354 49.35 107.404 49.6833 107.271 50.05C107.171 50.4167 106.921 50.6333 106.521 50.7C103.088 51.2333 99.7544 52.3 96.5211 53.9C96.4211 57.9 96.3878 61.9667 96.4211 66.1C96.9878 66.5667 97.3878 66.9167 97.6211 67.15C100.421 69.75 102.221 74 103.021 79.9C103.321 82.1333 103.238 84.35 102.771 86.55C102.071 89.9833 100.571 90.75 98.2711 88.85C97.6044 88.2833 97.0211 87.5 96.5211 86.5C96.0544 85.5333 95.6878 84.5667 95.4211 83.6C95.1878 82.6333 94.9878 81.45 94.8211 80.05C94.6878 78.65 94.6044 77.4833 94.5711 76.55C94.5378 75.65 94.5044 74.5 94.4711 73.1C94.4378 71.7333 94.4211 70.8333 94.4211 70.4C94.3878 69.6667 94.3544 68.6833 94.3211 67.45C90.9211 64.8833 86.9211 63.8167 82.3211 64.25C81.8211 64.2833 81.4878 64.0667 81.3211 63.6C81.1211 63.1667 81.2044 62.7833 81.5711 62.45C86.1378 58.1167 90.4544 54.85 94.5211 52.65C94.7211 48.4167 95.0211 44.1667 95.4211 39.9C95.4544 39.4667 95.5044 38.6833 95.5711 37.55C95.6711 36.4167 95.7544 35.3833 95.8211 34.45C95.8878 33.4833 96.0044 32.35 96.1711 31.05C96.3378 29.7167 96.5378 28.5333 96.7711 27.5C97.0044 26.4667 97.3378 25.4333 97.7711 24.4C98.2044 23.3333 98.6878 22.4833 99.2211 21.85C99.7878 21.2167 100.488 20.75 101.321 20.45C102.154 20.1167 103.071 20.05 104.071 20.25C104.471 20.35 104.738 20.5833 104.871 20.95C105.004 21.3167 104.971 21.65 104.771 21.95C104.571 22.25 104.271 22.35 103.871 22.25C103.071 22.0833 102.321 22.35 101.621 23.05C100.954 23.75 100.371 24.8 99.8711 26.2C99.4044 27.6 98.9711 29.2167 98.5711 31.05C98.2044 32.8833 97.8878 34.9833 97.6211 37.35C97.3544 39.6833 97.1378 42 96.9711 44.3C96.8378 46.6 96.7211 49.05 96.6211 51.65C99.7211 50.1833 102.921 49.2 106.221 48.7ZM101.271 84.8C101.538 81.8333 101.254 79 100.421 76.3C99.5878 73.6333 98.2711 71.3333 96.4711 69.4C96.5378 71.8667 96.6044 73.5833 96.6711 74.55C96.9711 78.45 97.3878 81.4333 97.9211 83.5C98.3544 85.1333 98.9378 86.2833 99.6711 86.95C100.438 87.65 100.938 87.2 101.171 85.6L101.271 84.8ZM94.2711 64.7C94.2378 61.4 94.2878 58.1833 94.4211 55.05C91.3544 56.7833 88.1544 59.1667 84.8211 62.2C88.3544 62.3 91.5044 63.1333 94.2711 64.7ZM106.876 45.3C107.042 44.9333 107.309 44.7333 107.676 44.7C108.042 44.6667 108.342 44.7833 108.576 45.05C108.842 45.3167 108.909 45.65 108.776 46.05C107.076 50.3167 106.259 54.65 106.326 59.05C106.326 59.6167 106.042 59.9 105.476 59.9C104.876 59.9 104.509 59.6333 104.376 59.1C104.342 59 104.326 58.9 104.326 58.8C104.259 54.3 105.109 49.8 106.876 45.3ZM110.226 39.55C110.459 40.1167 110.292 40.5667 109.726 40.9L106.176 43C105.942 43.1333 105.692 43.15 105.426 43.05C105.159 42.9167 104.976 42.7333 104.876 42.5C104.642 41.9667 104.809 41.5167 105.376 41.15L108.926 39.05C109.159 38.9167 109.409 38.9167 109.676 39.05C109.942 39.15 110.126 39.3167 110.226 39.55ZM144.834 46.45C145.101 46.15 145.417 46.0333 145.784 46.1C146.184 46.1667 146.451 46.3667 146.584 46.7C146.751 47 146.717 47.3167 146.484 47.65C145.651 48.6833 144.667 49.75 143.534 50.85C142.401 51.95 141.067 53.05 139.534 54.15C138.001 55.2167 136.501 56.0667 135.034 56.7C133.567 57.3 132.067 57.5333 130.534 57.4C129.001 57.2333 127.684 56.5667 126.584 55.4C125.984 54.7333 125.167 53.75 124.134 52.45C123.134 51.15 122.401 50.2333 121.934 49.7C121.634 49.4 121.351 49.1667 121.084 49C120.817 48.8 120.584 48.6667 120.384 48.6C120.184 48.5333 119.967 48.55 119.734 48.65C119.501 48.75 119.301 48.85 119.134 48.95C119.001 49.0167 118.817 49.1833 118.584 49.45C118.351 49.7167 118.184 49.9333 118.084 50.1C117.984 50.2667 117.801 50.55 117.534 50.95C117.267 51.3167 117.084 51.5667 116.984 51.7C116.817 51.9667 116.367 52.8167 115.634 54.25C114.934 55.65 114.201 56.85 113.434 57.85C112.701 58.8167 112.001 59.35 111.334 59.45C110.934 59.5167 110.617 59.4 110.384 59.1C110.151 58.7667 109.984 58.4167 109.884 58.05C109.751 57.65 109.701 57.1833 109.734 56.65C109.767 56.0833 109.801 55.65 109.834 55.35C109.867 55.05 109.951 54.5667 110.084 53.9C110.217 53.2333 110.301 52.85 110.334 52.75C110.534 51.4833 110.917 49.6833 111.484 47.35C112.051 44.9833 112.384 43.5667 112.484 43.1C112.584 42.7333 112.817 42.4833 113.184 42.35C113.551 42.2167 113.884 42.25 114.184 42.45C114.484 42.65 114.584 42.95 114.484 43.35C114.317 44.0833 114.034 45.3 113.634 47C113.234 48.6667 112.934 49.95 112.734 50.85C112.334 52.8167 112.084 54.1833 111.984 54.95C111.984 55.05 111.984 55.2 111.984 55.4C112.251 54.9 112.584 54.3667 112.984 53.8C113.417 53.2333 113.867 52.6333 114.334 52C114.801 51.3667 115.134 50.8833 115.334 50.55C115.434 50.4167 115.567 50.2167 115.734 49.95C115.934 49.6833 116.101 49.45 116.234 49.25C116.367 49.05 116.517 48.8333 116.684 48.6C116.884 48.3333 117.067 48.1 117.234 47.9C117.401 47.7 117.584 47.5 117.784 47.3C117.984 47.1 118.184 46.9167 118.384 46.75C118.617 46.5833 118.834 46.45 119.034 46.35C119.567 46.2167 120.034 46.15 120.434 46.15C120.834 46.15 121.267 46.3 121.734 46.6C122.201 46.9 122.601 47.2167 122.934 47.55C123.301 47.8833 123.684 48.3 124.084 48.8C124.517 49.3 124.867 49.7667 125.134 50.2C125.434 50.6 125.734 51.0333 126.034 51.5C126.367 51.9667 126.651 52.3333 126.884 52.6C128.051 54.0333 129.101 54.8833 130.034 55.15C130.967 55.3833 132.301 55.1833 134.034 54.55C138.101 53.05 141.701 50.35 144.834 46.45ZM164.592 46.3C164.892 46 165.208 45.9333 165.542 46.1C165.875 46.2333 166.075 46.4833 166.142 46.85C166.242 47.1833 166.158 47.5167 165.892 47.85C159.025 54.8833 153.092 57.8 148.092 56.6C146.325 56.2 144.992 55.4333 144.092 54.3C143.192 53.1333 142.842 51.85 143.042 50.45C143.208 49.0167 143.858 47.65 144.992 46.35C145.892 45.3833 147.058 44.6 148.492 44C150.625 43.1333 151.675 43.6667 151.642 45.6C151.642 45.6333 151.642 45.6667 151.642 45.7C151.608 47 150.825 48.2333 149.292 49.4C147.758 50.5667 146.375 50.95 145.142 50.55C145.008 52.05 145.642 53.1667 147.042 53.9C148.442 54.6333 149.975 54.85 151.642 54.55C154.008 54.1167 156.208 53.2 158.242 51.8C160.308 50.3667 162.425 48.5333 164.592 46.3ZM148.742 46C148.275 46.0333 147.758 46.3167 147.192 46.85C146.658 47.3833 146.192 47.9667 145.792 48.6C146.492 48.9333 147.342 48.5333 148.342 47.4C149.008 46.6333 149.192 46.1667 148.892 46C148.858 46 148.808 46 148.742 46Z" fill="#292E36"/>
</svg>
