<svg width="25" height="25" viewBox="0 0 25 25" fill="none" xmlns="http://www.w3.org/2000/svg">
<path d="M12.5932 0.581543C5.92358 0.581543 0.515625 5.95356 0.515625 12.5789C0.515625 17.4903 3.49188 21.7108 7.746 23.5693C7.71365 22.7337 7.7406 21.7268 7.95628 20.8163C8.18812 19.8415 9.50911 14.2767 9.50911 14.2767C9.50911 14.2767 9.1209 13.5108 9.1209 12.3807C9.1209 10.6025 10.1561 9.27425 11.4501 9.27425C12.5501 9.27425 13.0785 10.0937 13.0785 11.0738C13.0785 12.1718 12.3721 13.8107 12.0109 15.3318C11.709 16.6065 12.6525 17.6402 13.9196 17.6402C16.2057 17.6402 17.7477 14.7212 17.7477 11.2613C17.7477 8.63153 15.9631 6.6659 12.7226 6.6659C9.06159 6.6659 6.77548 9.38136 6.77548 12.4128C6.77548 13.4572 7.0882 14.1964 7.57346 14.7641C7.79452 15.0265 7.82687 15.1337 7.746 15.4336C7.68669 15.6532 7.55728 16.1834 7.49797 16.3977C7.4171 16.7029 7.16908 16.8101 6.8941 16.6976C5.20647 16.012 4.41927 14.1803 4.41927 12.1129C4.41927 8.70652 7.31465 4.61993 13.0515 4.61993C17.6615 4.61993 20.697 7.93526 20.697 11.4916C20.697 16.1995 18.0605 19.713 14.1784 19.713C12.8736 19.713 11.6496 19.0114 11.2291 18.2187C11.2291 18.2187 10.5282 20.9823 10.3772 21.5179C10.1238 22.4445 9.62233 23.3657 9.16403 24.0888C10.2758 24.4146 11.4287 24.5805 12.5878 24.5815C19.2574 24.5815 24.6654 19.2095 24.6654 12.5842C24.6654 5.95891 19.2628 0.581543 12.5932 0.581543Z" fill="white"/>
</svg>
